<svg xmlns="http://www.w3.org/2000/svg" width="1200" height="1200"><g fill="#59D559"><path d="M381.6 520.6c-17.4-47.3-42.3-92.1-73.4-133.2-16.2-22.5-33.6-42.4-53.5-61.1 2.5 1.3 5 2.5 7.4 3.8 64.8 36.1 118.3 83.4 161.9 137 12.4-13.7 24.9-26.2 37.3-38.6 46.1-43.7 98.3-78.5 154.4-103.4-56.1-69.7-129.5-127-219.1-164.4-94.6-38.6-194.2-48.6-288.8-34.9-2.5 5-5 10-7.5 16.2C4.5 377.4 85.4 641.4 280.8 785.9 292 690 326.9 599.1 381.6 520.6Z"/><path d="M1138.5 386.1c-82.2-49.8-178-77.2-281.4-77.2-287.5 0-522.8 222.9-543.9 504.4 122-118.3 292.5-239.1 453.1-272.7C616.9 600.3 465 731.1 363 868.1c-49.8 68.5-74.7 103.4-85.9 120.8-6.2 8.7-11.2 17.4-15 24.9-4.9 7.4-8.7 13.7-11.2 18.7-6.2 10-9.9 16.2-9.9 16.2l67.2 32.4s2.5-6.3 6.2-17.5c2.5-5 5-12.4 7.5-19.9 2.5-7.5 6.2-16.2 9.9-24.9 7.5-18.7 17.5-39.9 28.7-62.3 8.7-16.2 17.4-32.4 27.3-49.8 63.5 26.2 133.2 39.9 205.4 39.9 300 0 544-244.1 544-544.3 1.3-5 1.3-10 1.3-16.2Z"/></g></svg>